<svg xmlns="http://www.w3.org/2000/svg" id="Camada_2" viewBox="0 0 144.58 143.44"><defs><style>.cls-1{fill:#fff;}</style></defs><g id="Camada_1-2"><g><path class="cls-1" d="M103.89,82.53c-5.54-3.94-11.8-5.27-18.42-5.44-2.43-.07-2.43-.09-2.96-2.54,.46-.09,.93-.19,1.4-.26,6.65-1.03,11.93-5.98,13.3-12.61,.18-.91,.56-1.25,1.37-1.5,7.44-2.34,10.44-10.57,6.34-17.18-.31-.5-.39-1.36-.2-1.92,1.17-3.42,1.96-6.92,2.03-10.53,.27-13.23-5.86-23.05-16.51-30.54-.26,.33-.48,.59-.67,.86-4.53,6.31-10.67,9.37-18.43,9.26-4.7-.07-9.39-.06-14.08,0-10.16,.13-18.89,8.8-19.26,18.97-.15,4.02,1.18,7.62,2.7,11.2,.28,.65,.36,1.13-.14,1.8-5.07,6.79-2.27,15.56,5.79,18.13,.71,.23,1.04,.51,1.21,1.31,1.17,5.48,4.34,9.42,9.49,11.64,1.65,.71,3.46,1.03,5.21,1.52-.5,2.29-.5,2.25-2.79,2.41-2.43,.17-4.9,.25-7.28,.7-11.48,2.17-20.56,11.08-22.78,22.2-2.32,11.62,2.4,23,12.31,29.57,.7,.46,.91,.95,.91,1.74-.03,3.35-.02,6.71-.02,10.06v2.06h59.78c0-3.99,.03-7.91-.03-11.83-.02-1.02,.28-1.61,1.15-2.19,16.61-11.11,16.87-35.31,.58-46.89Zm-6.22-27.05v-12.54c2.63,.78,4.48,3.34,4.51,6.19,.03,2.91-1.79,5.51-4.51,6.35Zm-50.74-.01c-2.62-.75-4.49-3.34-4.52-6.17-.03-2.89,1.77-5.49,4.52-6.37v12.55Zm.35-18.41c-.27,1.49-1.62,.88-2.31,1.67-2.71-5.21-3.7-10.35-.88-15.61,2.79-5.19,7.09-8.24,13.1-8.38,4.73-.11,9.48-.06,14.21-.02,7.41,.07,13.75-2.44,19.01-7.67,.17-.17,.35-.3,.51-.45,10.17,7.26,13.77,21.89,9.46,32.29-.95-.31-1.84-.53-2.66-.89-.42-.18-.9-.51-1.09-.91-2.07-4.22-5.36-6.61-10.09-6.96-5.39-.4-10.78-.84-16.17-1.29-1.73-.15-2.72-1.15-2.66-2.57,.06-1.43,1.16-2.34,2.86-2.37,.52-.01,1.04,0,1.64,0v-4.45c-4.22-.62-6.95,.83-8.68,4.46-.21,.45-.71,.88-1.18,1.09-2.61,1.17-5.25,2.3-7.9,3.41-3.91,1.64-6.4,4.46-7.17,8.65Zm4.34,21.35c-.05-6.32-.03-12.64,0-18.96,0-3.14,1.46-5.39,4.34-6.66,2.57-1.14,5.16-2.22,7.82-3.36,1.56,2.9,4.04,3.96,7.13,4.15,5.25,.31,10.5,.76,15.74,1.22,3.72,.33,6.31,3.18,6.33,6.91,.04,5.6,.06,11.21,0,16.81-.07,6.37-5.08,11.34-11.46,11.39-6.12,.05-12.25,.05-18.38,0-6.45-.05-11.46-5.05-11.51-11.49Zm25.89,23.07c-2.95,3.08-7.91,2.94-10.69-.28-.98-1.13-1.36-2.24-.78-3.77,1.1-2.87,1.01-2.9,4.08-2.9h2.15c1.29,0,2.59,.09,3.87-.03,1.14-.11,1.65,.36,1.87,1.41,.1,.46,.21,.95,.44,1.36,.96,1.71,.21,3.01-.95,4.22Zm-14.78,1.82c4.58,6.73,14.57,6.73,19.14,0,1.11-1.64,2.18-1.98,3.84-1.43-.87,6.17-6.79,11.06-13.42,11.06s-12.59-4.93-13.4-11.06c1.67-.55,2.73-.2,3.84,1.44Zm-8.57-.99c1.01,4.96,3.47,9.05,7.68,11.97,3.16,2.18,6.69,3.26,10.52,3.24,4.47-.03,8.46-1.47,11.87-4.37,3.37-2.86,5.35-6.55,6.2-10.83,9.23,.46,20.18,9.29,20.83,22.03h-9.01v-9.03h-4.65c0,4.35,.02,8.64-.01,12.94,0,.9-.07,1.83-.3,2.7-.75,2.79-3.3,4.86-6.19,4.95-2.77,.09-5.55,.06-8.33,0-.43-.01-.97-.34-1.27-.68-4.35-4.95-11.03-5.25-15.69-.6-.95,.95-1.88,1.39-3.24,1.34-2.82-.1-5.65-.01-8.47-.04-4.11-.04-7.05-2.98-7.07-7.09-.03-4.02,0-8.05,0-12.07v-1.47h-4.55v9.05h-9.11c.63-12.86,11.69-21.57,20.81-22.04Zm-20.62,26.78h8.76c.12,.74,.22,1.48,.37,2.22,1.01,5.19,5.54,9.09,10.83,9.21,4.02,.09,8.04,.05,12.06,0,.5,0,1.07-.32,1.47-.66,.87-.74,1.6-1.64,2.46-2.4,1.72-1.52,3.73-1.93,5.88-1.14,2.15,.79,3.45,2.41,3.75,4.68,.17,1.22,.15,2.5,0,3.72-.31,2.65-2.52,4.94-5.17,4.96-6.83,.04-13.71,.3-20.5-.32-10.06-.93-19.06-10.39-19.91-20.26Zm63.99,29.78H47.07v-6.15c2.2,.46,4.37,.99,6.56,1.36,1.36,.22,2.76,.26,4.15,.26,9.47,.02,18.95-.02,28.42,.02,3.62,.02,7.15-.41,10.57-1.61,.22-.07,.46-.08,.74-.13v6.25Zm-15.4-9.28c1.8-2.74,1.79-5.8,1.61-9.05,1.85,0,3.61-.11,5.36,.02,6.45,.5,12.5-3.44,13.2-11.44h8.7c0,12.22-14.4,22.49-28.86,20.47Z"></path><path class="cls-1" d="M25.01,93.15c-.67,1.38-1.31,2.69-2.01,4.11-2.28-1.14-4.51-2.21-6.7-3.37-.76-.4-1.24-.35-1.83,.3-.99,1.09-2.05,2.15-3.15,3.13-.3,.27-.98,.48-1.3,.32-3.31-1.59-6.58-3.26-10.02-4.98,.72-1.44,1.35-2.71,2.05-4.1,2.27,1.13,4.5,2.2,6.68,3.35,.75,.4,1.24,.4,1.83-.26,.99-1.1,2.04-2.15,3.14-3.14,.31-.27,.99-.5,1.3-.34,3.31,1.59,6.58,3.26,10,4.98Z"></path><path class="cls-1" d="M144.58,92.67c-3.47,1.74-6.82,3.44-10.21,5.07-.26,.13-.88-.19-1.16-.46-1.29-1.27-2.52-2.6-3.77-3.91-2.7,1.34-5.21,2.59-7.83,3.89-.69-1.37-1.34-2.67-2.05-4.1,3.6-1.8,7.08-3.55,10.75-5.39,1.44,1.58,2.88,3.17,4.31,4.73,2.78-1.38,5.29-2.63,7.92-3.94,.68,1.37,1.34,2.67,2.05,4.1Z"></path><path class="cls-1" d="M25.02,106.95c-.69,1.4-1.32,2.67-2.03,4.09-2.59-1.28-5.13-2.54-7.83-3.87-1.44,1.55-2.86,3.08-4.35,4.7-3.67-1.84-7.18-3.59-10.81-5.4,.69-1.4,1.32-2.67,2.03-4.11,2.58,1.29,5.13,2.55,7.85,3.9,1.25-1.31,2.48-2.64,3.77-3.91,.28-.28,.9-.59,1.16-.46,3.39,1.63,6.73,3.33,10.2,5.07Z"></path><path class="cls-1" d="M144.57,106.43c-1.09,.57-2.12,1.12-3.17,1.65-2.17,1.09-4.37,2.14-6.52,3.27-.71,.37-1.17,.35-1.72-.27-.93-1.03-1.99-1.93-2.91-2.97-.64-.72-1.15-.86-2.05-.36-2.12,1.17-4.33,2.19-6.58,3.31-.68-1.36-1.32-2.63-2.04-4.05,.88-.46,1.69-.9,2.52-1.32,2.35-1.18,4.71-2.33,7.03-3.55,.79-.42,1.33-.41,1.97,.3,1.15,1.27,2.4,2.46,3.72,3.78,2.62-1.3,5.13-2.55,7.73-3.84,.68,1.35,1.31,2.62,2.03,4.05Z"></path><path class="cls-1" d="M25.02,120.76c-.71,1.42-1.34,2.7-2.04,4.09-2.27-1.13-4.49-2.2-6.67-3.34-.74-.4-1.24-.4-1.83,.26-.99,1.1-2.05,2.15-3.15,3.14-.3,.27-.98,.5-1.29,.35-3.31-1.59-6.58-3.26-10.01-4.98,.66-1.37,1.3-2.68,2-4.12,2.61,1.3,5.16,2.56,7.81,3.88,1.3-1.34,2.54-2.66,3.85-3.91,.3-.28,.99-.51,1.3-.36,3.31,1.59,6.58,3.26,10.04,5Z"></path><path class="cls-1" d="M144.54,120.16c-.33,.22-.62,.45-.94,.61-2.77,1.39-5.57,2.72-8.31,4.18-1,.53-1.64,.58-2.43-.35-1.04-1.24-2.26-2.33-3.51-3.59-2.62,1.3-5.13,2.55-7.75,3.85-.69-1.37-1.34-2.68-2.05-4.1,3.61-1.8,7.09-3.55,10.79-5.4,1.43,1.59,2.86,3.18,4.27,4.75,2.79-1.39,5.3-2.63,7.91-3.93,.67,1.34,1.31,2.6,2,3.98Z"></path><path class="cls-1" d="M83.55,64.61c-1.36,.46-2.73,.92-4.17,1.4-1.39-3.43-3.77-5.42-7.47-5.26-3.3,.15-5.44,2.05-6.69,5.26-1.41-.47-2.78-.93-4.14-1.38,.75-4.41,5.63-8.3,10.58-8.51,5.51-.23,10.59,3.32,11.89,8.48Z"></path><path class="cls-1" d="M87.81,49.73c-1.25,1.18-2.29,2.15-3.19,3.01-2.8-2.82-5.68-5.72-8.67-8.72,2.73-1.82,5.72-3.82,8.86-5.92,.86,1.28,1.67,2.49,2.55,3.8-1.51,1.03-2.96,2.02-4.67,3.2,1.76,1.59,3.42,3.08,5.13,4.63Z"></path><path class="cls-1" d="M68.71,44.05c-2.92,2.93-5.81,5.82-8.75,8.77-.83-.89-1.82-1.95-2.99-3.21,1.54-1.39,3.19-2.89,4.98-4.51-1.74-1.18-3.19-2.16-4.71-3.19,.85-1.27,1.64-2.46,2.53-3.81,3.12,2.08,6.1,4.06,8.93,5.95Z"></path></g></g></svg>