<svg xmlns="http://www.w3.org/2000/svg" id="Camada_2" viewBox="0 0 119.43 147.16"><defs><style>.cls-1{fill:#fff;}</style></defs><g id="Camada_1-2"><g><path class="cls-1" d="M44.63,144.8c-.07,.82-.86,1.57-1.32,2.36h-1.44c-1.12-.62-1.57-1.55-1.5-2.84,.08-1.57,.03-3.16,.02-4.74-.01-1.82-.38-2.18-2.17-2.22-4.36-.08-8.73,.1-13.06-.3C10.37,135.71-1.28,121.62,.11,106.85c1.07-11.32,6.9-19.39,17.24-24.03,6.01-2.7,8.96-7.09,8.94-13.68-.05-21.75-.02-43.49-.02-65.23,0-.29,0-.57,0-.86,0-2.05,.75-3.09,2.18-3.05,1.39,.03,2.13,1.05,2.13,3,0,22.27,.03,44.54-.02,66.81-.02,7.88-3.75,13.5-10.96,16.67-8.07,3.56-13.21,9.48-14.87,18.19-2.44,12.72,6.15,25.41,18.99,27.76,3.77,.69,7.72,.45,11.58,.61,1.19,.05,2.4-.01,3.59,.01,3.18,.06,5.57,2.25,5.76,5.43,.12,2.1,.16,4.22-.03,6.32Z"></path><path class="cls-1" d="M61.13,147.16h-1.44c-1.19-.66-1.47-1.69-1.5-3-.08-3.24,.07-6.56-.56-9.71-1.72-8.58-9.47-14.77-18.2-14.91-3.45-.05-6.9,.02-10.34-.03-1.04-.02-2.11-.13-3.13-.37-1.22-.28-1.88-1.34-1.62-2.48,.27-1.19,1.07-1.74,2.3-1.71,4.01,.1,8.03,.23,12.04,.26,13.46,.07,23.79,10.39,23.85,23.87,0,1.68-.06,3.36,.02,5.03,.06,1.31-.33,2.33-1.43,3.06Z"></path><path class="cls-1" d="M117.83,62.83c-1.37-.41-2.12,.43-2.78,1.47-2.66,4.21-5.34,8.4-8.01,12.6-.26,.41-.56,.82-.94,1.38-.51-1.45-.93-2.66-1.38-3.87-.6-1.62-1.65-2.25-2.91-1.78-1.29,.48-1.71,1.6-1.15,3.21,.86,2.48,1.79,4.95,2.64,7.44,.35,1.01,.79,1.88,1.95,2.06,1.23,.18,1.92-.57,2.52-1.52,2.14-3.41,4.31-6.79,6.48-10.18,.2-.31,.45-.59,.87-1.14,0,5.71,.03,11.02-.02,16.34-.01,1.23-.22,2.48-.47,3.7-1.88,8.89-10.29,15.46-19.31,15.12-9.56-.36-17.7-7.35-18.59-16.57-.54-5.6-.24-11.29-.31-16.93,0-.45,0-.9,0-1.75,.51,.73,.79,1.1,1.04,1.49,2.11,3.31,4.23,6.62,6.32,9.94,.57,.9,1.2,1.64,2.38,1.54,1.26-.12,1.71-1.03,2.08-2.08,2.08-5.91,4.19-11.81,6.29-17.71,.38-1.06,.78-2.11,1.26-3.44,.66,1.83,1.2,3.36,1.75,4.89,.38,1.06,1.1,1.69,2.26,1.64,1.52-.08,2.32-1.53,1.74-3.22-1.14-3.3-2.33-6.58-3.51-9.87-.72-2-1.41-2.36-3.75-1.81,0-2.27,.08-4.42-.02-6.57-.48-10.98-5.19-19.79-13.99-26.3-6.94-5.14-14.82-7.18-23.43-6.34-4.72,.46-8.32-2.75-8.37-7.49-.02-1.63,.05-3.26-.03-4.88C48.36,.83,47.41-.03,46.21,0c-1.19,.03-2.04,.92-2.07,2.28-.03,1.63-.03,3.26,0,4.89,.1,7.27,5.93,12.41,13.2,11.64,16.86-1.79,32.08,11.41,32.57,28.35,.17,5.84,.05,11.69,.05,17.53,0,.28,.02,.59-.07,.85-1.46,4.17-2.93,8.34-4.5,12.79-.62-.96-1.03-1.7-1.55-2.38-.75-.97-1-1.94-.66-3.19,.31-1.14,.36-2.37,.36-3.56,.03-7.14,.04-14.28,0-21.42,0-1.33-.15-2.68-.43-3.99-2.55-12.12-13.25-19.81-25.72-18.55-11.48,1.17-20.38,11.3-20.42,23.27-.02,5.75-.03,11.5,0,17.25,.02,2.2,.02,4.42,.31,6.59,1.63,12.07,13.66,21.19,25.69,19.37,3.08-.46,6.05-1.6,9.02-2.42,.3,1.82,.65,3.96,1.02,6.17-4.04,1.92-8.29,2.87-12.77,2.86-10.2-.01-20.41-.01-30.61,0-1.05,0-2.12,.06-3.15,.23-6,.98-10.13,7.63-8.22,13.2,.42,1.23,1.41,1.86,2.51,1.61,1.2-.27,1.82-1.29,1.65-2.61-.1-.76-.26-1.52-.22-2.28,.22-3.46,2.95-5.83,6.75-5.84,10.4-.02,20.8-.02,31.19,0,4.76,0,9.31-.93,13.68-2.8,.33-.14,.68-.25,1.02-.38,.16,.25,.27,.4,.37,.56,5.76,9.53,16.42,13.94,26.76,11.09,10.42-2.88,17.39-12.17,17.43-23.3,.03-7.43,0-14.85,.01-22.28,0-1.24-.25-2.32-1.6-2.73ZM61.83,29.41c12.05,1.21,18.19,11.95,17.25,20.24-1.38-1.24-2.54-2.21-3.62-3.27-1.89-1.84-3.94-3.3-6.66-3.63-3.12-.38-5.89,.37-8.27,2.42-.87,.75-1.68,1.57-2.5,2.37-3.14,3.05-6.48,3.07-9.59,.02-1.85-1.81-3.63-3.69-6.19-4.47,.75-7.5,10.99-14.53,19.58-13.67Zm11.88,33.4c-1.27,.35-1.64,1.32-1.64,2.54,.01,5.65-.02,11.3,.03,16.95,0,.92-.26,1.49-1.03,1.99-6.22,4.01-12.75,4.64-19.35,1.27-6.63-3.38-10.2-9.02-10.39-16.49-.18-7.17-.04-14.35-.04-21.9,.93,.69,1.68,1.16,2.33,1.74,1.01,.88,1.9,1.89,2.93,2.75,4.01,3.33,9.46,3.29,13.43-.08,.95-.8,1.81-1.71,2.71-2.56,2.96-2.79,6.3-2.75,9.31,.03,1.47,1.36,3.01,2.65,4.61,3.84,.7,.52,1.64,.72,2.56,1.11v14.6c-1.09-1.71-1.99-3.09-2.87-4.49-.61-.97-1.39-1.62-2.6-1.28Z"></path></g></g></svg>