<!-- <svg width="29" height="24" viewBox="0 0 29 24" fill="none" xmlns="http://www.w3.org/2000/svg">

<path d="M8 19C8.53043 19 9.03914 18.7893 9.41421 18.4142C9.78929 18.0391 10 17.5304 10 17C10 16.4696 9.78929 15.9609 9.41421 15.5858C9.03914 15.2107 8.53043 15 8 15C7.46957 15 6.96086 15.2107 6.58579 15.5858C6.21071 15.9609 6 16.4696 6 17C6 17.5304 6.21071 18.0391 6.58579 18.4142C6.96086 18.7893 7.46957 19 8 19V19Z" stroke="#1F1F1F" stroke-width="1.5" stroke-miterlimit="1.5" stroke-linecap="round" stroke-linejoin="round"></path>
<path d="M18 19C18.5304 19 19.0391 18.7893 19.4142 18.4142C19.7893 18.0391 20 17.5304 20 17C20 16.4696 19.7893 15.9609 19.4142 15.5858C19.0391 15.2107 18.5304 15 18 15C17.4696 15 16.9609 15.2107 16.5858 15.5858C16.2107 15.9609 16 16.4696 16 17C16 17.5304 16.2107 18.0391 16.5858 18.4142C16.9609 18.7893 17.4696 19 18 19V19Z" stroke="#1F1F1F" stroke-width="1.5" stroke-miterlimit="1.5" stroke-linecap="round" stroke-linejoin="round"></path>
<path d="M10.05 17H15V6.6C15 6.44087 14.9368 6.28826 14.8243 6.17574C14.7117 6.06321 14.5591 6 14.4 6H1" stroke="#1F1F1F" stroke-width="1.5" stroke-linecap="round"></path>
<path d="M5.65 17H3.6C3.52121 17 3.44319 16.9845 3.37039 16.9543C3.29759 16.9242 3.23145 16.88 3.17574 16.8243C3.12002 16.7685 3.07583 16.7024 3.04567 16.6296C3.01552 16.5568 3 16.4788 3 16.4V11.5" stroke="#1F1F1F" stroke-width="1.5" stroke-linecap="round"></path>
<path d="M2 9H6" stroke="#1F1F1F" stroke-width="1.5" stroke-linecap="round" stroke-linejoin="round"></path>
<path d="M15 9H20.61C20.726 9.00003 20.8395 9.03367 20.9367 9.09685C21.034 9.16003 21.1108 9.25005 21.158 9.356L22.948 13.384C22.9821 13.4605 22.9998 13.5433 23 13.627V16.4C23 16.4788 22.9845 16.5568 22.9543 16.6296C22.9242 16.7024 22.88 16.7685 22.8243 16.8243C22.7685 16.88 22.7024 16.9242 22.6296 16.9543C22.5568 16.9845 22.4788 17 22.4 17H20.5" stroke="#1F1F1F" stroke-width="1.5" stroke-linecap="round"></path>
<path d="M15 17H16" stroke="#1F1F1F" stroke-width="1.5" stroke-linecap="round"></path>
</svg> -->


<svg width="129" height="24" viewBox="0 0 129 24" fill="none" xmlns="http://www.w3.org/2000/svg">
<path d="M43.9826 6.326V4.634H34.8926V17H36.7286V11.618H43.2806V9.926H36.7286V6.326H43.9826ZM46.92 9.476V7.694H45.138V17H46.92V11.708C47.082 10.088 48.45 9.026 50.376 9.026V7.478C48.774 7.478 47.514 8.252 46.92 9.476ZM55.4804 15.632C53.8784 15.632 52.7444 14.516 52.5104 12.968H59.8364C59.8364 9.638 58.1984 7.478 55.3544 7.478C52.7804 7.478 50.7104 9.53 50.7104 12.32C50.7104 15.182 52.9064 17.216 55.4984 17.216C56.8124 17.216 58.4324 16.658 59.2604 15.776L58.1444 14.624C57.5864 15.2 56.4524 15.632 55.4804 15.632ZM55.4264 9.062C57.0284 9.062 57.9104 10.106 58.1084 11.546H52.5284C52.8164 10.034 53.9864 9.062 55.4264 9.062ZM65.3579 15.326C65.1599 15.524 64.7999 15.668 64.4039 15.668C63.8819 15.668 63.4499 15.2 63.4499 14.552V9.206H65.6459V7.694H63.4499V5.138H61.7039V7.694H60.2999V9.206H61.7039V14.678C61.7039 16.172 62.7119 17.216 64.1519 17.216C64.8179 17.216 65.5019 16.964 66.0059 16.55L65.3579 15.326ZM71.1882 15.632C69.5862 15.632 68.4522 14.516 68.2182 12.968H75.5442C75.5442 9.638 73.9062 7.478 71.0622 7.478C68.4882 7.478 66.4182 9.53 66.4182 12.32C66.4182 15.182 68.6142 17.216 71.2062 17.216C72.5202 17.216 74.1402 16.658 74.9682 15.776L73.8522 14.624C73.2942 15.2 72.1602 15.632 71.1882 15.632ZM71.1342 9.062C72.7362 9.062 73.6182 10.106 73.8162 11.546H68.2362C68.5242 10.034 69.6942 9.062 71.1342 9.062ZM88.0341 7.694V9.188C87.3321 8.144 86.1441 7.478 84.7401 7.478C82.2921 7.478 80.5101 9.296 80.5101 11.888C80.5101 14.48 82.2921 16.316 84.7401 16.316C86.1441 16.316 87.2961 15.686 88.0341 14.624V15.974C88.0341 17.594 86.8281 18.548 84.8301 18.548C83.7141 18.548 82.5981 18.17 81.9141 17.522L81.2121 18.854C82.0941 19.574 83.5341 20.096 85.1001 20.096C87.8541 20.096 89.8161 18.404 89.8161 16.01V7.694H88.0341ZM85.1901 14.768C83.5341 14.768 82.3641 13.58 82.3641 11.888C82.3641 10.214 83.5341 9.026 85.1901 9.026C86.8461 9.026 88.0341 10.214 88.0341 11.888C88.0341 13.58 86.8461 14.768 85.1901 14.768ZM93.4457 9.476V7.694H91.6637V17H93.4457V11.708C93.6077 10.088 94.9757 9.026 96.9017 9.026V7.478C95.2997 7.478 94.0397 8.252 93.4457 9.476ZM104.058 4.328L102.312 3.968L100.17 6.632H101.466L104.058 4.328ZM101.646 7.478C100.62 7.478 99.4501 7.748 98.1181 8.414L98.7661 9.728C99.5761 9.314 100.476 8.954 101.394 8.954C103.248 8.954 103.788 10.196 103.788 11.366V11.654C102.888 11.348 101.898 11.15 100.98 11.15C98.9281 11.15 97.2541 12.392 97.2541 14.246C97.2541 16.064 98.7121 17.216 100.692 17.216C101.826 17.216 103.104 16.694 103.788 15.722V17H105.534V11.366C105.534 9.062 104.148 7.478 101.646 7.478ZM101.034 15.812C99.8641 15.812 98.9641 15.2 98.9641 14.192C98.9641 13.184 100.008 12.482 101.25 12.482C102.168 12.482 103.032 12.608 103.788 12.842V14.084C103.482 15.236 102.186 15.812 101.034 15.812ZM111.567 15.326C111.369 15.524 111.009 15.668 110.613 15.668C110.091 15.668 109.659 15.2 109.659 14.552V9.206H111.855V7.694H109.659V5.138H107.913V7.694H106.509V9.206H107.913V14.678C107.913 16.172 108.921 17.216 110.361 17.216C111.027 17.216 111.711 16.964 112.215 16.55L111.567 15.326ZM114.014 6.146C114.59 6.146 115.076 5.642 115.076 5.066C115.076 4.508 114.59 4.004 114.014 4.004C113.402 4.004 112.934 4.508 112.934 5.066C112.934 5.642 113.402 6.146 114.014 6.146ZM113.114 17H114.896V7.694H113.114V17ZM119.939 17.216C121.973 17.216 123.467 16.1 123.467 14.336C123.467 12.482 121.829 11.978 120.299 11.528C118.733 11.042 118.157 10.826 118.157 10.106C118.157 9.404 118.877 9.008 119.795 9.008C120.605 9.008 121.541 9.314 122.441 9.872L123.233 8.558C122.225 7.892 121.001 7.478 119.795 7.478C117.815 7.478 116.393 8.594 116.411 10.304C116.411 11.816 117.473 12.428 119.615 13.022C120.767 13.346 121.721 13.616 121.721 14.48C121.721 15.2 121.001 15.686 119.957 15.686C118.859 15.686 117.797 15.272 116.807 14.552L115.961 15.83C117.077 16.73 118.571 17.216 119.939 17.216ZM125.322 13.238H126.546L126.996 4.634H124.89L125.322 13.238ZM125.916 17.216C126.564 17.216 127.086 16.658 127.086 15.992C127.086 15.38 126.564 14.822 125.916 14.822C125.232 14.822 124.71 15.38 124.71 15.992C124.71 16.658 125.232 17.216 125.916 17.216Z" fill="#1F1F1F"></path>
<path d="M8 19C8.53043 19 9.03914 18.7893 9.41421 18.4142C9.78929 18.0391 10 17.5304 10 17C10 16.4696 9.78929 15.9609 9.41421 15.5858C9.03914 15.2107 8.53043 15 8 15C7.46957 15 6.96086 15.2107 6.58579 15.5858C6.21071 15.9609 6 16.4696 6 17C6 17.5304 6.21071 18.0391 6.58579 18.4142C6.96086 18.7893 7.46957 19 8 19V19Z" stroke="#1F1F1F" stroke-width="1.5" stroke-miterlimit="1.5" stroke-linecap="round" stroke-linejoin="round"></path>
<path d="M18 19C18.5304 19 19.0391 18.7893 19.4142 18.4142C19.7893 18.0391 20 17.5304 20 17C20 16.4696 19.7893 15.9609 19.4142 15.5858C19.0391 15.2107 18.5304 15 18 15C17.4696 15 16.9609 15.2107 16.5858 15.5858C16.2107 15.9609 16 16.4696 16 17C16 17.5304 16.2107 18.0391 16.5858 18.4142C16.9609 18.7893 17.4696 19 18 19V19Z" stroke="#1F1F1F" stroke-width="1.5" stroke-miterlimit="1.5" stroke-linecap="round" stroke-linejoin="round"></path>
<path d="M10.05 17H15V6.6C15 6.44087 14.9368 6.28826 14.8243 6.17574C14.7117 6.06321 14.5591 6 14.4 6H1" stroke="#1F1F1F" stroke-width="1.5" stroke-linecap="round"></path>
<path d="M5.65 17H3.6C3.52121 17 3.44319 16.9845 3.37039 16.9543C3.29759 16.9242 3.23145 16.88 3.17574 16.8243C3.12002 16.7685 3.07583 16.7024 3.04567 16.6296C3.01552 16.5568 3 16.4788 3 16.4V11.5" stroke="#1F1F1F" stroke-width="1.5" stroke-linecap="round"></path>
<path d="M2 9H6" stroke="#1F1F1F" stroke-width="1.5" stroke-linecap="round" stroke-linejoin="round"></path>
<path d="M15 9H20.61C20.726 9.00003 20.8395 9.03367 20.9367 9.09685C21.034 9.16003 21.1108 9.25005 21.158 9.356L22.948 13.384C22.9821 13.4605 22.9998 13.5433 23 13.627V16.4C23 16.4788 22.9845 16.5568 22.9543 16.6296C22.9242 16.7024 22.88 16.7685 22.8243 16.8243C22.7685 16.88 22.7024 16.9242 22.6296 16.9543C22.5568 16.9845 22.4788 17 22.4 17H20.5" stroke="#1F1F1F" stroke-width="1.5" stroke-linecap="round"></path>
<path d="M15 17H16" stroke="#1F1F1F" stroke-width="1.5" stroke-linecap="round"></path>
</svg>