<svg xmlns="http://www.w3.org/2000/svg" id="Camada_2" viewBox="0 0 135.85 128.67"><defs><style>.cls-1{fill:#fff;}</style></defs><g id="Camada_1-2"><g><path class="cls-1" d="M66.82,4.48v.04h.04v-.04h-.04Zm0,4.6v.04h.04v-.04h-.04Zm-4.6-4.6v.04h.04v-.04h-.04Zm0,4.6v.04h.04v-.04h-.04Zm-12.84,85.1h-1.64c.55,0,1.09,0,1.64,0,1.14,0,2.29,0,3.43,0-1.14,0-2.28-.01-3.43-.01ZM20.83,22.87v.04h.04v-.04h-.04Zm0-4.6v.04h.04v-.04h-.04Zm-4.6,0v.04h.04v-.04h-.04Zm0,4.6v.04h.04v-.04h-.04Z"></path><path class="cls-1" d="M135.56,51.09c-1.91-20.56-21.4-35.56-41.85-32.44-17.46,2.66-30.48,17.03-31.46,34.66-.03,.61-.32,1.29-.7,1.78-2.53,3.25-5.13,6.44-7.69,9.67-1.34,1.7-1.04,3.09,.87,4.08,2.13,1.09,4.27,2.17,6.43,3.19,.79,.37,1.16,.81,1.11,1.73-.08,1.34-.04,2.68-.02,4.02,.03,1.7,.88,2.55,2.58,2.59,1.49,.03,2.97-.04,4.45,.02,2.02,.09,3.43,1.14,4.16,3.01,1.14,2.92-.94,6.06-4.23,6.14-3.15,.07-5.64,3.35-4.25,6.35,.76,1.64,1.17,3.43,1.76,5.16,.67,1.97,1.16,2.32,3.23,2.32,5.03,0,10.06,0,15.3,0v1.28c0,6.95,0,13.89,0,20.84,0,2.45,.71,3.17,3.15,3.18h32.77c2.45,0,3.18-.72,3.18-3.15,0-7.57-.02-15.13,.02-22.7,0-.83,.21-1.7,.51-2.48,2.15-5.57,4.62-11.04,6.48-16.71,3.46-10.55,5.24-21.42,4.2-32.53Zm-4.75,12.74c-.99,11.86-4.94,22.86-9.76,33.59-.97,2.15-1.38,4.3-1.34,6.65,.1,6.08,.03,12.17,.03,18.25v1.69h-29.83c-.02-.47-.06-.89-.06-1.31,0-6.42,.02-12.83-.02-19.25,0-.96,.3-1.56,1.04-2.16,3.82-3.13,7.57-6.32,11.39-9.45,.97-.79,1.46-1.68,1.41-2.96-.07-1.96,0-3.93-.02-5.89-.02-1.59-.92-2.59-2.27-2.6-1.36-.02-2.27,.98-2.32,2.55,0,.28-.05,.58,0,.86,.64,3.44-.7,5.79-3.57,7.76-2.83,1.94-5.32,4.38-8,6.54-.47,.38-1.18,.64-1.79,.64-4.6,.05-9.2,.02-13.79,.05-.78,0-1.23-.16-1.44-.99-.29-1.15-.73-2.27-1.15-3.54,3.23-.34,5.85-1.59,7.62-4.32,1.22-1.89,1.64-3.96,1.39-6.17-.57-5.05-4.27-7.69-11.48-8.05,0-1.34-.03-2.71,.01-4.07,.04-1.31-.51-2.17-1.67-2.74-2.02-.98-4.02-2-6.21-3.09,.35-.47,.63-.88,.94-1.26,1.97-2.47,4-4.9,5.89-7.43,.56-.75,.99-1.79,1.01-2.71,.43-16.55,12.99-29.89,29.7-31.45,15.85-1.49,30.69,9.64,34.07,25.56,1.08,5.08,.67,10.2,.24,15.31Z"></path><path class="cls-1" d="M21.4,85.06c.04-.7,.05-1.27,.1-1.84,.43-5.48,.88-10.97,1.3-16.46,.22-2.89-1.16-5.33-3.59-6.48-3.26-1.54-6.91-.17-8.5,3.27-2.78,6.03-5.39,12.15-8.31,18.11-1.69,3.44-2.54,6.9-2.31,10.74,.23,3.77-.5,7.68,.25,11.31,.76,3.67,2.67,7.14,4.33,10.58,1.77,3.65,2.76,7.36,2.4,11.45-.18,2.13,.76,2.92,2.93,2.92,5.6,0,11.21,0,16.81,0,2.53,0,3.22-.69,3.22-3.24,0-10.77,0-21.54,0-32.31,0-5.58-2.94-8.37-8.65-8.06Zm4.04,38.95H11.75c-.03-.25-.12-.48-.09-.7,.36-3.11-.55-5.91-1.85-8.69-1.65-3.51-3.1-7.1-4.59-10.68-.27-.64-.44-1.37-.45-2.06-.04-4.36-.04-8.72,0-13.08,0-.65,.14-1.34,.41-1.92,3.14-6.98,6.3-13.94,9.49-20.9,.25-.54,.63-1.12,1.12-1.42,1.25-.76,2.53,.23,2.42,1.87-.28,4.06-.58,8.12-.95,12.17-.73,8.11-1.23,16.23-1.01,24.38,.04,1.66,.96,2.7,2.35,2.67,1.34-.03,2.23-1.04,2.24-2.63,.02-3.59,0-7.18,.01-10.78,0-1.62,.86-2.61,2.2-2.67,1.29-.05,2.37,1,2.38,2.53,.03,10.58,.01,21.16,.01,31.9Z"></path><path class="cls-1" d="M57.63,82.68c0,1.25-.93,2.24-2.29,2.28-2.06,.05-4.12,.02-6.18,.02-1.82,0-3.64,.03-5.46,0-4.85-.1-8.81-3.91-9.05-8.66-.24-4.89,3.28-9.08,8.13-9.67,.24-.03,.48-.04,.71-.04,1.49-.01,2.5,.81,2.62,2.1,.12,1.33-.83,2.32-2.38,2.49-3.36,.38-5.31,3.24-4.21,6.19,.68,1.83,2.35,2.99,4.47,3,3.4,.02,6.8,0,10.19,0,.38,0,.77-.02,1.15,.01,1.36,.1,2.29,1.04,2.28,2.29Z"></path><path class="cls-1" d="M57.63,91.95c-.04,1.29-1.02,2.19-2.5,2.22-.77,.02-1.54,.02-2.32,.02-1.14,0-2.28-.01-3.43,0-.55,0-1.09,0-1.64,0-1.27,0-2.55-.01-3.82,.01-2.58,.05-4.54,1.88-4.68,4.32-.14,2.51,1.68,4.57,4.28,4.86,1.79,.2,2.76,1.17,2.58,2.58-.18,1.4-1.36,2.16-3.12,2-4.76-.43-8.42-4.52-8.35-9.34,.07-4.78,3.92-8.84,8.7-8.98,3.92-.12,7.85-.05,11.77-.03,1.54,.01,2.55,1.01,2.51,2.36Z"></path><polygon class="cls-1" points="62.27 4.48 62.27 4.52 62.22 4.48 62.27 4.48"></polygon><rect class="cls-1" x="62.27" width="4.55" height="4.48"></rect><polygon class="cls-1" points="66.86 4.48 66.82 4.52 66.82 4.48 66.86 4.48"></polygon><rect class="cls-1" x="57.74" y="4.52" width="4.48" height="4.56"></rect><polygon class="cls-1" points="62.26 9.08 62.22 9.12 62.22 9.08 62.26 9.08"></polygon><polygon class="cls-1" points="62.27 4.52 62.22 4.52 62.22 4.48 62.27 4.52"></polygon><polygon class="cls-1" points="66.86 4.48 66.86 4.52 66.82 4.52 66.86 4.48"></polygon><polygon class="cls-1" points="66.86 9.08 66.86 9.12 66.82 9.08 66.86 9.08"></polygon><rect class="cls-1" x="66.86" y="4.52" width="4.48" height="4.56"></rect><polygon class="cls-1" points="62.26 9.08 62.26 9.12 62.22 9.12 62.26 9.08"></polygon><rect class="cls-1" x="62.26" y="9.12" width="4.56" height="4.48"></rect><polygon class="cls-1" points="66.86 9.12 66.82 9.12 66.82 9.08 66.86 9.12"></polygon><polygon class="cls-1" points="16.27 18.27 16.27 18.31 16.23 18.27 16.27 18.27"></polygon><rect class="cls-1" x="16.27" y="13.79" width="4.56" height="4.48"></rect><polygon class="cls-1" points="20.87 18.27 20.83 18.31 20.83 18.27 20.87 18.27"></polygon><rect class="cls-1" x="11.75" y="18.31" width="4.48" height="4.56"></rect><polygon class="cls-1" points="16.26 22.87 16.23 22.91 16.23 22.87 16.26 22.87"></polygon><polygon class="cls-1" points="16.27 18.31 16.23 18.31 16.23 18.27 16.27 18.31"></polygon><polygon class="cls-1" points="20.87 18.27 20.87 18.31 20.83 18.31 20.87 18.27"></polygon><polygon class="cls-1" points="20.87 22.87 20.87 22.91 20.83 22.87 20.87 22.87"></polygon><rect class="cls-1" x="20.87" y="18.31" width="4.48" height="4.56"></rect><polygon class="cls-1" points="16.26 22.87 16.26 22.91 16.23 22.91 16.26 22.87"></polygon><rect class="cls-1" x="16.26" y="22.91" width="4.56" height="4.48"></rect><polygon class="cls-1" points="20.87 22.91 20.83 22.91 20.83 22.87 20.87 22.91"></polygon><rect class="cls-1" x="41.6" y="22.99" width="4.46" height="4.43"></rect><rect class="cls-1" x="34.72" y="29.9" width="4.47" height="4.4"></rect><rect class="cls-1" x="48.53" y="29.86" width="4.41" height="4.47"></rect><rect class="cls-1" x="41.61" y="36.79" width="4.45" height="4.42"></rect><rect class="cls-1" x="62.22" y="9.08" width=".04" height=".04"></rect><rect class="cls-1" x="62.22" y="4.48" width=".04" height=".04"></rect><rect class="cls-1" x="66.82" y="9.08" width=".04" height=".04"></rect><rect class="cls-1" x="66.82" y="4.48" width=".04" height=".04"></rect><rect class="cls-1" x="16.23" y="22.87" width=".04" height=".04"></rect><rect class="cls-1" x="16.23" y="18.27" width=".04" height=".04"></rect><rect class="cls-1" x="20.83" y="18.27" width=".04" height=".04"></rect><rect class="cls-1" x="20.83" y="22.87" width=".04" height=".04"></rect><path class="cls-1" d="M87.53,55.1c0,1.3-.98,2.26-2.44,2.27-2.96,.04-5.94,.11-8.89-.05-.78-.04-1.72-.74-2.22-1.42-.63-.86-.17-1.84,.56-2.57,2.19-2.2,4.38-4.42,6.6-6.58,1.13-1.11,2.48-1.11,3.43-.11,.91,.96,.88,2.23-.17,3.32-.83,.86-1.74,1.63-2.62,2.44,.07,.13,.14,.26,.21,.39,1.04,0,2.08-.03,3.12,0,1.46,.05,2.42,1,2.41,2.3Z"></path></g></g></svg>