<svg xmlns="http://www.w3.org/2000/svg" id="Camada_2" viewBox="0 0 111.19 147.15"><defs><style>.cls-1{fill:#fff;}</style></defs><g id="Camada_1-2"><g><path class="cls-1" d="M107.68,84.25c-8.41,23-24.51,37.52-48.33,43.32-6.17,1.5-12.47,2.07-18.82,1.17-1.69-.24-3.35-.76-5.01-1.23-2.84-.81-5.59-.6-8.25,.66-1.34,.64-2.66,1.31-3.97,2-3.31,1.74-4.98,4.51-5.06,8.22-.05,1.92-.07,3.83,.01,5.74,.06,1.32-.31,2.34-1.48,3.01h-1.44c-1.12-.71-1.5-1.73-1.44-3.04,.13-2.68-.01-5.37,.28-8.02,.38-3.49,2.08-6.51,5.04-8.34,2.98-1.84,6.24-3.3,9.53-4.55,2.44-.93,5.15-.74,7.64,.12,6.1,2.1,12.29,1.77,18.46,.75,17.41-2.89,31.19-11.7,41.25-26.16,7.35-10.57,10.77-22.41,10.75-35.26,0-4.94,.07-9.86-1.37-14.67-2.12-7.08-6.02-12.97-11.73-17.66-.26-.21-.53-.41-.78-.63-1.01-.93-1.15-2.11-.38-3.06,.76-.94,2.07-1.16,3.06-.25,2.35,2.17,4.82,4.27,6.83,6.74,5.63,6.9,8.41,14.91,8.66,23.83,.26,9.29-.21,18.49-3.44,27.32Z"></path><path class="cls-1" d="M5.83,125.03c-1.08,2.6-1.53,5.31-1.51,8.12,.03,3.59-.03,7.18,.03,10.77,.02,1.32-.23,2.45-1.37,3.24H1.54C.39,146.56-.01,145.63,0,144.34c.05-3.93,.03-7.85,.02-11.78,0-3.15,.58-6.18,1.8-9.08,.68-1.61,1.7-2.18,2.96-1.69,1.29,.51,1.7,1.67,1.05,3.23Z"></path><path class="cls-1" d="M101.94,52.99c-2.26-17.66-19.23-28.99-36.84-25.68-15.44,2.9-26.77,18.22-24.82,33.74,.61,4.85,1.58,9.64-.03,14.49-.38,1.14,.31,2.04,1.47,2.43,1.11,.37,2.32-.17,2.6-1.39,.52-2.28,1.14-4.6,1.13-6.9-.01-3.04-.6-6.07-.92-9.11-.38-3.59-.05-7.09,1.3-10.63,.26,.13,.32,.4,.48,.57,3.7,3.84,8,3.74,11.55-.26,.54-.61,1.05-1.25,1.62-1.82,1.33-1.31,2.87-1.32,4.18-.01,.74,.74,1.39,1.59,2.1,2.35,3.13,3.34,7.61,3.37,10.78,.07,.7-.73,1.31-1.53,2-2.26,1.44-1.51,3.04-1.52,4.49-.03,.73,.76,1.37,1.6,2.1,2.36,3.04,3.14,7.39,3.17,10.47,.09,.36-.36,.69-.78,1.24-1.42,.29,1.19,.57,2.02,.69,2.86,1.11,7.76,.85,15.46-.88,23.1-5.34,23.52-27.77,41.05-51.89,40.58-6.33-.12-11.95-4.22-14.06-10.25-2.11-6.01-.22-12.71,4.68-16.76,1.14-.94,2.28-1.91,3.31-2.97,.98-1.01,.94-2.2,.06-3.08-.84-.84-2.07-.83-3.09,.06-.94,.81-1.83,1.69-2.79,2.48-6.57,5.37-9.03,14.03-6.19,21.88,2.85,7.88,10.25,13.04,18.69,12.96,13.14-.13,24.99-4.12,35.21-12.37,17.61-14.22,24.15-33.12,21.34-55.06Zm-9.43-5c-1.29,1.29-2.89,1.29-4.18,0-.78-.78-1.44-1.67-2.21-2.46-3.12-3.22-7.56-3.21-10.66,.04-.63,.66-1.19,1.38-1.8,2.05-1.7,1.84-3.29,1.81-4.99-.08-.54-.61-1.06-1.24-1.61-1.84-3.24-3.49-7.85-3.44-11.06,.1-.64,.71-1.23,1.47-1.91,2.15-1.36,1.36-2.94,1.35-4.28-.03-.77-.79-1.46-1.65-2.3-2.61,4.94-8.46,12.12-13.61,21.98-14.19,11.27-.66,19.66,4.41,25.54,14.04-.92,1.04-1.67,1.98-2.51,2.82Z"></path><path class="cls-1" d="M37.83,45.68c-1.69,4.71-2.43,9.55-2.06,14.54,.17,2.19,.63,4.35,.88,6.53,.7,6.08-1.26,11.16-6.04,15-4.87,3.91-8.04,8.81-9.09,14.98-.4,2.35-.36,4.77-.69,7.13-.43,3.07-1.81,5.74-3.94,7.98-1.68,1.77-3.42,3.49-5.16,5.2-1.11,1.08-2.4,1.12-3.29,.17-.87-.92-.81-2.12,.23-3.18,1.5-1.54,3.04-3.06,4.56-4.58,2.31-2.3,3.52-5.07,3.57-8.35,.14-9.22,3.73-16.77,10.95-22.57,4.06-3.26,5.42-7.5,4.43-12.54-1.43-7.26-1.03-14.38,1.47-21.35,1.18-3.31,.94-6.43-.83-9.51-4.3-7.47-6.3-15.55-6.27-24.16,0-2.78-.01-5.56,0-8.33C26.59,.98,27.44-.02,28.77,0c1.32,.02,2.11,1.01,2.12,2.68,.01,1.87,0,3.74,0,5.61-.43,9.18,1.6,17.73,6.2,25.72,2.12,3.67,2.17,7.68,.74,11.66Z"></path><path class="cls-1" d="M87.65,23.38c-.33,1.46-1.63,2.05-3.3,1.39-5.03-1.96-10.25-2.8-15.61-2.33-2.46,.21-4.97,.57-7.32,1.31-11.19,3.56-19.99-5.61-20.76-14.57-.2-2.28-.11-4.59-.09-6.89,.02-1.37,.87-2.26,2.06-2.29,1.29-.03,2.18,.9,2.23,2.46,.06,2.05-.03,4.12,.09,6.17,.31,5.14,4.25,10.03,9.02,11.28,2.05,.53,4.05,.29,6.08-.29,8.7-2.49,17.3-2.13,25.76,1.11,1.5,.57,2.12,1.49,1.85,2.65Z"></path><path class="cls-1" d="M76.77,74.27c-3.56-.02-6.5,2.89-6.52,6.45-.02,3.61,2.97,6.62,6.56,6.58,3.56-.04,6.43-2.96,6.43-6.55,0-3.6-2.87-6.47-6.47-6.48Zm0,8.7c-1.16,.02-2.19-.99-2.21-2.17-.02-1.18,.97-2.2,2.16-2.21,1.21-.02,2.17,.93,2.18,2.16,.01,1.21-.94,2.21-2.13,2.22Z"></path><path class="cls-1" d="M62.44,59.09c-3.59-.04-6.52,2.81-6.57,6.38-.04,3.63,2.89,6.63,6.5,6.63,3.55,0,6.47-2.91,6.48-6.48,.02-3.61-2.8-6.48-6.41-6.52Zm-.03,8.69c-1.17,.02-2.19-.97-2.22-2.15-.03-1.2,.93-2.19,2.13-2.21,1.23-.02,2.18,.9,2.2,2.13,.02,1.21-.93,2.21-2.12,2.24Z"></path><path class="cls-1" d="M55.67,82.61c-3.54-.05-6.51,2.81-6.6,6.39-.09,3.55,2.93,6.63,6.51,6.64,3.53,0,6.5-2.93,6.53-6.48,.04-3.53-2.87-6.49-6.44-6.55Zm-.03,8.7c-1.16,.03-2.21-.98-2.25-2.15-.03-1.18,.94-2.2,2.14-2.23,1.2-.03,2.22,.93,2.25,2.12,.03,1.16-.98,2.22-2.14,2.25Z"></path><path class="cls-1" d="M88.37,67.92c-.03,1.15-.97,2.08-2.11,2.08-1.17,0-2.2-1.04-2.17-2.2,.04-1.19,1.07-2.12,2.28-2.05,1.17,.06,2.03,1,2,2.17Z"></path><path class="cls-1" d="M69.59,99.18c.05,1.16-.98,2.23-2.15,2.23-1.13,0-2.08-.93-2.12-2.08-.04-1.23,.89-2.2,2.12-2.2,1.16,0,2.11,.91,2.15,2.05Z"></path><path class="cls-1" d="M78.61,63.34c-1.22,.03-2.2-.93-2.19-2.13,.01-1.16,.91-2.07,2.08-2.1,1.19-.03,2.1,.81,2.17,1.98,.07,1.24-.82,2.22-2.05,2.25Z"></path><path class="cls-1" d="M55.64,106.93c-1.18,.03-2.1-.82-2.17-1.99-.07-1.2,.87-2.25,2.05-2.28,1.12-.03,2.11,.89,2.17,2.03,.07,1.24-.83,2.22-2.05,2.25Z"></path></g></g></svg>